<?xml version="1.0" encoding="UTF-8"?><svg id="Layer_2" xmlns="http://www.w3.org/2000/svg" viewBox="0 0 27.18 26.42"><defs><style>.cls-1{fill:#fff;stroke-linejoin:round;}.cls-1,.cls-2{stroke:#000;stroke-width:.75px;}.cls-2{fill:#8fffab;stroke-miterlimit:10;}</style></defs><g id="Small"><path class="cls-2" d="M15.47,14.42l11.33,3.16v-1.49c0-.19-.1-.36-.27-.46l-7.26-4.12c.02-.07.03-.14.03-.22v-1.21c0-.41-.33-.74-.74-.74h-.42c-.41,0-.74.33-.74.74v.37l-1.94-1.1v-5.05c0-1.03-.84-3.93-1.87-3.93h0c-1.03,0-1.87,2.9-1.87,3.93v5.04l-1.95,1.11v-.37c0-.41-.33-.74-.74-.74h-.42c-.41,0-.74.33-.74.74v1.21c0,.07.01.15.03.22L.64,15.64c-.16.09-.27.27-.27.46v1.49l11.35-3.17v2.24c0,.58.26,3.4.67,5.79l-3.42,1.85c-.23.12-.37.36-.37.62v1l4.29-1.19c.22.72.45,1.19.7,1.19h0c.25,0,.49-.48.71-1.22l4.33,1.2v-1c0-.26-.14-.5-.37-.62l-3.46-1.88c.41-2.37.67-5.16.67-5.74v-2.24Z"/><path class="cls-1" d="M15.47,14.42l11.33,3.16v-1.49c0-.19-.1-.36-.27-.46l-7.26-4.12c.02-.07.03-.14.03-.22v-1.21c0-.41-.33-.74-.74-.74h-.42c-.41,0-.74.33-.74.74v.37l-1.94-1.1v-5.05c0-1.03-.84-3.93-1.87-3.93h0c-1.03,0-1.87,2.9-1.87,3.93v5.04l-1.95,1.11v-.37c0-.41-.33-.74-.74-.74h-.42c-.41,0-.74.33-.74.74v1.21c0,.07.01.15.03.22L.64,15.64c-.16.09-.27.27-.27.46v1.49l11.35-3.17v2.24c0,.58.26,3.4.67,5.79l-3.42,1.85c-.23.12-.37.36-.37.62v1l4.29-1.19c.22.72.45,1.19.7,1.19h0c.25,0,.49-.48.71-1.22l4.33,1.2v-1c0-.26-.14-.5-.37-.62l-3.46-1.88c.41-2.37.67-5.16.67-5.74v-2.24Z"/></g></svg>