<?xml version="1.0" encoding="UTF-8"?><svg id="Layer_1" xmlns="http://www.w3.org/2000/svg" viewBox="0 0 288 288"><defs><style>.cls-1{stroke-width:3px;}.cls-1,.cls-2,.cls-3{fill:none;stroke:#fff;stroke-miterlimit:10;}.cls-2{stroke-dasharray:0 0 9.7 9.7;}.cls-2,.cls-3{stroke-linecap:round;stroke-width:2px;}.cls-4{fill:#fff;}.cls-4,.cls-5,.cls-6{stroke-width:0px;}.cls-5{fill:#00001f;}.cls-6{fill:#7ad28b;}</style></defs><circle class="cls-5" cx="144" cy="144" r="132"/><circle class="cls-1" cx="144" cy="144" r="89"/><line class="cls-1" x1="144" y1="23" x2="144" y2="265"/><line class="cls-3" x1="226.43" y1="61.57" x2="222.9" y2="65.1"/><line class="cls-2" x1="216.04" y1="71.96" x2="68.53" y2="219.47"/><line class="cls-3" x1="65.1" y1="222.9" x2="61.57" y2="226.43"/><polygon class="cls-4" points="229.95 43.95 225.16 62.84 244.05 58.05 229.95 43.95"/><polygon class="cls-4" points="43.95 229.95 62.84 225.16 58.05 244.05 43.95 229.95"/><line class="cls-1" x1="265" y1="144" x2="23" y2="144"/><line class="cls-3" x1="61.57" y1="61.57" x2="65.1" y2="65.1"/><line class="cls-2" x1="71.96" y1="71.96" x2="219.47" y2="219.47"/><line class="cls-3" x1="222.9" y1="222.9" x2="226.43" y2="226.43"/><polygon class="cls-4" points="43.95 58.05 62.84 62.84 58.05 43.95 43.95 58.05"/><polygon class="cls-4" points="229.95 244.05 225.16 225.16 244.05 229.95 229.95 244.05"/><path class="cls-6" d="M144,88c30.93,0,56,25.07,56,56s-25.07,56-56,56-56-25.07-56-56,25.07-56,56-56M144,84c-33.08,0-60,26.92-60,60s26.92,60,60,60,60-26.92,60-60-26.92-60-60-60h0Z"/><circle class="cls-5" cx="144" cy="144" r="28"/><path class="cls-5" d="M113.59,224c-.43,0-.86-.14-1.21-.41-.5-.38-.79-.97-.79-1.59v-6.12c0-2.33,1.27-4.46,3.32-5.57l19.6-10.63c-2.44-14.56-3.9-30.78-3.9-34.25v-11.06l-66.76,18.63c-.18.05-.36.07-.54.07-.43,0-.86-.14-1.21-.41-.5-.38-.79-.97-.79-1.59v-9.1c0-1.87,1.01-3.6,2.63-4.52l43.14-24.48c0-.09,0-.17,0-.26v-7.41c0-3.59,2.92-6.51,6.51-6.51h2.58c3.21,0,5.88,2.33,6.42,5.39l8.02-4.55v-29.62c0-5.57,4.89-26.01,13.44-26.01s13.44,20.44,13.44,26.01v29.68l7.93,4.5c.53-3.06,3.21-5.39,6.42-5.39h2.58c3.59,0,6.51,2.92,6.51,6.51v7.41c0,.09,0,.17,0,.26l43.14,24.48c1.62.92,2.63,2.65,2.63,4.52v9.1c0,.63-.29,1.21-.79,1.59-.35.27-.78.41-1.21.41-.18,0-.36-.02-.54-.07l-66.67-18.6v11.02c0,3.41-1.45,19.48-3.86,33.96l19.88,10.78c2.05,1.11,3.32,3.24,3.32,5.57v6.12c0,.62-.29,1.21-.79,1.59-.35.27-.78.41-1.21.41-.18,0-.36-.02-.53-.07l-24.6-6.82c-1.65,4.9-3.38,7.03-5.65,7.03s-3.95-2.06-5.57-6.82l-24.35,6.75c-.18.05-.36.07-.53.07Z"/><path class="cls-4" d="M144.05,66c6.32,0,11.44,17.69,11.44,24.01v30.85l11.83,6.72v-2.25c0-2.49,2.02-4.51,4.51-4.51h2.58c2.49,0,4.51,2.02,4.51,4.51v7.41c0,.46-.07.9-.2,1.31l44.34,25.16c1,.57,1.62,1.63,1.62,2.78v9.1l-69.21-19.31v13.66c0,3.51-1.58,20.56-4.07,35.03l21.13,11.46c1.4.76,2.27,2.22,2.27,3.81v6.12l-26.46-7.33c-1.33,4.54-2.79,7.47-4.32,7.47h0c-1.5,0-2.94-2.84-4.25-7.26l-26.21,7.26v-6.12c0-1.59.87-3.06,2.27-3.81l20.86-11.31c-2.52-14.53-4.12-31.79-4.12-35.32v-13.7l-69.3,19.34v-9.1c0-1.15.62-2.21,1.62-2.78l44.34-25.16c-.13-.42-.2-.86-.2-1.31v-7.41c0-2.49,2.02-4.51,4.51-4.51h2.58c2.49,0,4.51,2.02,4.51,4.51v2.25l11.93-6.77v-30.78c0-6.32,5.12-24.01,11.44-24.01h0M144.05,62c-10.65,0-15.44,22.27-15.44,28.01v28.45l-4.94,2.81c-1.44-2.66-4.26-4.48-7.49-4.48h-2.58c-4.69,0-8.51,3.82-8.51,8.51v6.51l-42.12,23.9c-2.25,1.28-3.65,3.68-3.65,6.26v9.1c0,1.25.59,2.43,1.58,3.19.7.53,1.55.81,2.42.81.36,0,.72-.05,1.07-.15l64.22-17.92v8.43c0,3.4,1.39,18.88,3.7,33.17l-18.35,9.95c-2.69,1.46-4.36,4.27-4.36,7.33v6.12c0,1.25.58,2.43,1.58,3.18.7.54,1.56.82,2.42.82.36,0,.72-.05,1.07-.15l22.58-6.26c1.44,3.54,3.47,6.4,6.81,6.4s5.44-2.87,6.9-6.61l22.81,6.32c.35.1.71.15,1.07.15.87,0,1.72-.28,2.42-.82.99-.76,1.58-1.93,1.58-3.18v-6.12c0-3.06-1.67-5.87-4.36-7.33l-18.63-10.1c2.17-13.52,3.65-29.04,3.65-32.88v-8.39l64.13,17.9c.35.1.72.15,1.07.15.86,0,1.72-.28,2.42-.81,1-.76,1.58-1.94,1.58-3.19v-9.1c0-2.59-1.4-4.98-3.65-6.26l-42.12-23.9v-6.51c0-4.69-3.82-8.51-8.51-8.51h-2.58c-3.23,0-6.05,1.81-7.49,4.48l-4.85-2.75v-28.52c0-5.75-4.79-28.01-15.44-28.01h0Z"/><path class="cls-4" d="M144,29c30.72,0,59.6,11.96,81.32,33.68,21.72,21.72,33.68,50.6,33.68,81.32s-11.96,59.6-33.68,81.32c-21.72,21.72-50.6,33.68-81.32,33.68s-59.6-11.96-81.32-33.68c-21.72-21.72-33.68-50.6-33.68-81.32s11.96-59.6,33.68-81.32c21.72-21.72,50.6-33.68,81.32-33.68M144,23c-66.83,0-121,54.17-121,121s54.17,121,121,121,121-54.17,121-121S210.83,23,144,23h0Z"/><path class="cls-5" d="M144,13c34.99,0,67.89,13.63,92.63,38.37,24.74,24.74,38.37,57.64,38.37,92.63s-13.63,67.89-38.37,92.63c-24.74,24.74-57.64,38.37-92.63,38.37s-67.89-13.63-92.63-38.37c-24.74-24.74-38.37-57.64-38.37-92.63s13.63-67.89,38.37-92.63c24.74-24.74,57.64-38.37,92.63-38.37M144,0C64.47,0,0,64.47,0,144s64.47,144,144,144,144-64.47,144-144S223.53,0,144,0h0Z"/></svg>